<svg width="17" height="17" viewBox="0 0 17 17" fill="none" xmlns="http://www.w3.org/2000/svg">
<path d="M11.2352 4.2895C11.2352 4.2895 11.5804 4.62791 11.2352 4.2895C10.7725 3.76132 10.5176 3.08302 10.5178 2.38086H8.4264V10.7734C8.41027 11.2276 8.21853 11.6578 7.89155 11.9734C7.56458 12.289 7.12788 12.4654 6.67343 12.4655C5.71235 12.4655 4.9137 11.6804 4.9137 10.7058C4.9137 9.54163 6.03722 8.66853 7.19458 9.02724V6.88849C4.85955 6.57715 2.81555 8.39103 2.81555 10.7058C2.81555 12.9596 4.68358 14.5636 6.66666 14.5636C8.79188 14.5636 10.5178 12.8377 10.5178 10.7058V6.44855C11.3658 7.05759 12.384 7.38436 13.4281 7.38257V5.29119C13.4281 5.29119 12.1557 5.3521 11.2352 4.2895Z" fill="#95E1D3"/>
</svg>
