<svg width="17" height="17" viewBox="0 0 17 17" fill="none" xmlns="http://www.w3.org/2000/svg">
<path d="M7.22166 10.5682C6.87919 12.4132 6.46226 14.1824 5.22503 15.1063C4.84398 12.3178 5.78612 10.223 6.22335 7.99969C5.47749 6.70696 6.31336 4.10458 7.8863 4.74553C9.822 5.53471 6.20981 9.55232 8.63486 10.0545C11.1668 10.5784 12.201 5.53132 10.6308 3.88935C8.3621 1.5198 4.02706 3.83588 4.5604 7.22879C4.69035 8.05857 5.52216 8.31035 4.89272 9.45553C3.44093 9.12321 3.00777 7.94419 3.06395 6.37193C3.15329 3.80001 5.30896 1.99831 7.47073 1.74924C10.2051 1.43385 12.7709 2.78275 13.1249 5.43115C13.5242 8.41999 11.891 11.6579 8.96786 11.4244C8.1753 11.3615 7.8423 10.9574 7.22166 10.5682Z" fill="#95E1D3"/>
</svg>
