<svg width="17" height="17" viewBox="0 0 17 17" fill="none" xmlns="http://www.w3.org/2000/svg">
<path d="M8.12594 13.218H8.1124C8.07044 13.218 3.87212 13.2099 2.81289 12.9222C2.52669 12.8451 2.26576 12.6942 2.05623 12.4845C1.8467 12.2749 1.69592 12.0139 1.61898 11.7276C1.42851 10.6531 1.33653 9.56339 1.34419 8.47212C1.33927 7.37907 1.43374 6.28783 1.62643 5.21188C1.70554 4.92516 1.85702 4.66358 2.06633 4.45226C2.27563 4.24094 2.53574 4.08696 2.82169 4.0051C3.85181 3.73438 7.9344 3.73438 8.10767 3.73438H8.12188C8.16452 3.73438 12.3737 3.7425 13.4221 4.03015C14.0035 4.18785 14.4576 4.64199 14.6146 5.22338C14.8109 6.30223 14.9036 7.39665 14.8901 8.4931C14.8948 9.58484 14.8001 10.6747 14.6072 11.7493C14.5292 12.0352 14.3778 12.2958 14.168 12.5051C13.9583 12.7144 13.6973 12.8652 13.4112 12.9425C12.3825 13.2153 8.2992 13.218 8.12594 13.218ZM6.7723 6.44504L6.76891 10.506L10.2965 8.47551L6.7723 6.44504Z" fill="#95E1D3"/>
</svg>
