<svg width="17" height="17" viewBox="0 0 17 17" fill="none" xmlns="http://www.w3.org/2000/svg">
<path d="M8.12325 14.5919C6.45827 14.5919 6.26199 14.5831 5.61224 14.5547C5.10556 14.538 4.60542 14.435 4.13339 14.2501C3.72945 14.0929 3.36261 13.8534 3.05617 13.5469C2.74974 13.2403 2.5104 12.8734 2.35335 12.4694C2.17555 11.9957 2.07966 11.4951 2.06976 10.9892C2.03186 10.3408 2.03186 10.1283 2.03186 8.47616C2.03186 6.80644 2.04066 6.61151 2.06976 5.96515C2.07987 5.45992 2.17577 4.96008 2.35335 4.48697C2.51022 4.08246 2.74972 3.71511 3.05656 3.40838C3.36341 3.10165 3.73085 2.86229 4.13542 2.70558C4.60828 2.52703 5.10825 2.43089 5.6136 2.42131C6.25996 2.38477 6.47248 2.38477 8.12325 2.38477C9.80177 2.38477 9.99466 2.39356 10.6343 2.42131C11.1405 2.43079 11.6427 2.5269 12.1165 2.70558C12.521 2.86247 12.8883 3.1019 13.1951 3.4086C13.502 3.71531 13.7415 4.08257 13.8986 4.48697C14.0793 4.96752 14.1761 5.47513 14.1835 5.98748C14.2214 6.63588 14.2214 6.84772 14.2214 8.49917C14.2214 10.1506 14.2119 10.3672 14.1835 11.0081C14.1734 11.5145 14.0773 12.0155 13.8992 12.4897C13.7418 12.894 13.502 13.2611 13.1951 13.5678C12.8882 13.8745 12.5209 14.114 12.1165 14.2711C11.6427 14.4484 11.1425 14.5445 10.637 14.5547C9.9906 14.5919 9.77875 14.5919 8.12325 14.5919ZM8.10024 3.45617C6.44473 3.45617 6.27282 3.4643 5.62646 3.4934C5.24043 3.49845 4.85813 3.56964 4.49617 3.70389C4.23216 3.80509 3.99229 3.96048 3.79201 4.16005C3.59174 4.35963 3.43551 4.59896 3.33339 4.86261C3.19802 5.22809 3.12696 5.61456 3.1229 6.00441C3.08702 6.66024 3.08702 6.83216 3.08702 8.47616C3.08702 10.1005 3.09312 10.2975 3.1229 10.9493C3.12899 11.335 3.20005 11.7175 3.33339 12.0796C3.54049 12.6122 3.96283 13.0332 4.49684 13.2376C4.85834 13.3727 5.24057 13.4439 5.62646 13.4481C6.28162 13.486 6.45421 13.486 8.10024 13.486C9.76048 13.486 9.93239 13.4779 10.5733 13.4481C10.9594 13.4434 11.3418 13.3722 11.7036 13.2376C11.9662 13.1356 12.2047 12.9801 12.404 12.781C12.6032 12.5819 12.7589 12.3434 12.861 12.0809C12.9964 11.7154 13.0674 11.3283 13.0715 10.9384H13.0789C13.108 10.2914 13.108 10.1188 13.108 8.46533C13.108 6.81185 13.1006 6.63791 13.0715 5.99155C13.0654 5.60607 12.9942 5.22439 12.861 4.86261C12.7591 4.59969 12.6036 4.36088 12.4043 4.16139C12.2051 3.96189 11.9664 3.80608 11.7036 3.70389C11.3415 3.56853 10.9591 3.49814 10.5733 3.4934C9.91886 3.45617 9.74762 3.45617 8.10024 3.45617ZM8.12325 11.6024C7.50435 11.6028 6.89922 11.4196 6.38442 11.0761C5.86962 10.7326 5.46825 10.2441 5.2311 9.67241C4.99395 9.10074 4.93165 8.47159 5.0521 7.86452C5.17255 7.25745 5.47032 6.69973 5.90777 6.26191C6.34521 5.82409 6.90267 5.52583 7.50963 5.40486C8.1166 5.28389 8.74581 5.34563 9.31768 5.58229C9.88955 5.81895 10.3784 6.21989 10.7224 6.7344C11.0664 7.2489 11.25 7.85387 11.2502 8.47277C11.2491 9.302 10.9194 10.097 10.3333 10.6836C9.74719 11.2702 8.95248 11.6006 8.12325 11.6024ZM8.12325 6.44096C7.72166 6.44096 7.32909 6.56004 6.99519 6.78315C6.66128 7.00626 6.40103 7.32338 6.24735 7.69439C6.09367 8.06541 6.05346 8.47367 6.1318 8.86754C6.21015 9.26141 6.40353 9.62321 6.6875 9.90717C6.97146 10.1911 7.33326 10.3845 7.72713 10.4629C8.121 10.5412 8.52926 10.501 8.90028 10.3473C9.27129 10.1936 9.58841 9.93339 9.81152 9.59948C10.0346 9.26558 10.1537 8.87301 10.1537 8.47142C10.1525 7.93329 9.93814 7.41756 9.55762 7.03705C9.17711 6.65653 8.66138 6.44221 8.12325 6.44096ZM11.372 5.95838C11.2762 5.95803 11.1814 5.9388 11.093 5.90181C11.0046 5.86481 10.9244 5.81077 10.8569 5.74277C10.7205 5.60543 10.6444 5.41957 10.6451 5.22606C10.6458 5.03256 10.7234 4.84726 10.8607 4.71094C10.998 4.57462 11.1839 4.49844 11.3774 4.49916C11.5709 4.49987 11.7562 4.57743 11.8925 4.71477C12.0288 4.8521 12.105 5.03797 12.1043 5.23148C12.1036 5.42498 12.026 5.61028 11.8887 5.7466C11.7514 5.88292 11.5655 5.9591 11.372 5.95838Z" fill="#95E1D3"/>
</svg>
