<svg width="17" height="17" viewBox="0 0 17 17" fill="none" xmlns="http://www.w3.org/2000/svg">
<path d="M13.288 5.76271C13.2968 5.88115 13.2968 5.99892 13.2968 6.11668C13.2968 9.72076 10.5537 13.8737 5.54045 13.8737C3.99595 13.8737 2.56109 13.4264 1.35364 12.6494C1.57293 12.6744 1.7841 12.6832 2.01218 12.6832C3.23926 12.6862 4.43158 12.2759 5.39697 11.5184C4.82805 11.5081 4.27654 11.3204 3.81946 10.9815C3.36238 10.6426 3.02253 10.1694 2.84738 9.62803C3.01591 9.65308 3.18512 9.67 3.36244 9.67C3.60678 9.67 3.85246 9.63616 4.08055 9.57727C3.46313 9.45261 2.90794 9.11795 2.50939 8.63019C2.11084 8.14242 1.89353 7.53168 1.89442 6.9018V6.86796C2.25787 7.07033 2.67953 7.19689 3.12623 7.21381C2.75201 6.96514 2.44516 6.6277 2.23306 6.2316C2.02096 5.83551 1.9102 5.39306 1.91066 4.94375C1.91066 4.43749 2.04535 3.97319 2.28156 3.56845C2.9666 4.41111 3.82099 5.10048 4.78941 5.59192C5.75783 6.08335 6.81867 6.3659 7.90324 6.42125C7.86127 6.21821 7.83555 6.00772 7.83555 5.79655C7.83538 5.43848 7.90577 5.08389 8.04271 4.75305C8.17966 4.42221 8.38046 4.1216 8.63365 3.86841C8.88684 3.61522 9.18745 3.41442 9.51829 3.27747C9.84914 3.14053 10.2037 3.07013 10.5618 3.07031C11.3469 3.07031 12.0555 3.39925 12.5537 3.93123C13.164 3.8132 13.7493 3.5904 14.2836 3.27268C14.0802 3.90268 13.654 4.43689 13.085 4.77523C13.6263 4.71348 14.1553 4.57113 14.6545 4.35289C14.2817 4.89644 13.8197 5.37309 13.288 5.76271Z" fill="#95E1D3"/>
</svg>
